<?xml version="1.0" encoding="UTF-8" ?>
<!DOCTYPE svg PUBLIC "-//W3C//DTD SVG 1.1//EN" "http://www.w3.org/Graphics/SVG/1.1/DTD/svg11.dtd">
<svg width="321pt" height="224pt" viewBox="0 0 321 224" version="1.1" xmlns="http://www.w3.org/2000/svg">
<g id="#ffffffff">
<path fill="#ffffff" opacity="1.00" d=" M 102.67 0.00 L 274.32 0.00 C 280.91 0.35 287.51 1.72 293.48 4.58 C 302.98 9.08 310.89 16.82 315.74 26.13 C 319.20 32.76 320.76 40.24 321.00 47.67 L 321.00 176.33 C 320.76 183.51 319.31 190.73 316.08 197.18 C 311.63 206.13 304.33 213.64 295.53 218.39 C 289.03 221.91 281.67 223.62 274.32 224.00 L 102.67 224.00 C 93.07 223.76 83.44 220.97 75.57 215.38 C 69.49 211.21 64.97 205.30 60.20 199.77 C 46.52 183.79 32.83 167.82 19.13 151.85 C 14.65 146.58 9.82 141.51 6.39 135.46 C -1.06 122.78 -1.62 106.55 4.10 93.10 C 7.59 84.85 13.88 78.32 19.63 71.62 C 32.71 56.37 45.77 41.11 58.84 25.86 C 64.24 19.59 69.35 12.85 76.33 8.23 C 84.01 2.86 93.35 0.22 102.67 0.00 M 96.37 16.70 C 89.13 18.11 82.75 22.45 78.01 28.01 C 61.88 46.88 45.69 65.70 29.54 84.55 C 26.03 88.71 22.09 92.62 19.62 97.53 C 15.21 105.95 15.10 116.39 18.98 125.02 C 21.37 130.29 25.43 134.49 29.13 138.85 C 45.62 158.04 62.08 177.26 78.54 196.48 C 83.47 202.35 90.50 206.46 98.11 207.56 C 103.38 208.28 108.70 207.96 114.00 208.00 C 164.00 208.00 214.00 207.99 264.00 208.01 C 269.49 207.96 275.05 208.34 280.45 207.13 C 291.66 204.51 300.99 195.35 303.94 184.24 C 304.82 180.91 304.98 177.45 305.02 174.02 C 304.99 132.67 304.99 91.33 305.02 49.98 C 304.98 46.55 304.82 43.09 303.94 39.76 C 301.01 28.63 291.66 19.48 280.44 16.86 C 275.05 15.65 269.48 16.04 264.00 15.99 C 210.66 16.01 157.31 16.00 103.96 16.00 C 101.42 16.04 98.86 16.19 96.37 16.70 Z" />
<path fill="#ffffff" opacity="1.00" d=" M 149.99 78.95 C 152.15 76.23 156.22 75.28 159.37 76.74 C 161.05 77.59 162.40 78.94 163.74 80.24 C 170.51 87.12 177.30 93.98 184.21 100.72 C 192.21 93.56 199.36 85.53 207.14 78.15 C 210.53 74.64 217.03 75.37 219.49 79.61 C 221.53 82.91 220.75 87.36 217.94 89.96 C 210.62 97.39 203.07 104.61 195.83 112.12 C 202.65 119.64 210.13 126.50 217.23 133.75 C 218.85 135.48 220.53 137.49 220.63 139.99 C 220.91 143.63 218.52 147.42 214.88 148.27 C 212.03 149.11 208.96 148.10 206.89 146.05 C 199.20 138.74 192.13 130.78 184.19 123.74 C 178.71 129.07 173.35 134.53 167.94 139.94 C 165.41 142.42 163.12 145.18 160.22 147.23 C 156.76 149.70 151.32 148.60 149.20 144.88 C 147.28 141.87 147.69 137.70 150.19 135.15 C 157.53 127.30 165.60 120.14 172.79 112.14 C 167.62 106.67 162.20 101.44 156.90 96.11 C 154.43 93.59 151.70 91.29 149.59 88.44 C 147.51 85.68 147.76 81.55 149.99 78.95 Z" />
</g>
</svg>
