<?xml version="1.0" encoding="UTF-8" ?>
<!DOCTYPE svg PUBLIC "-//W3C//DTD SVG 1.1//EN" "http://www.w3.org/Graphics/SVG/1.1/DTD/svg11.dtd">
<svg width="960pt" height="960pt" viewBox="0 0 960 960" version="1.1" xmlns="http://www.w3.org/2000/svg">
<g id="#ffffffff">
<path fill="#ffffff" opacity="1.00" d=" M 677.50 252.77 C 685.17 252.52 692.96 250.61 700.55 252.53 C 702.99 253.06 705.48 253.23 707.98 253.40 C 712.42 253.65 716.68 255.09 721.07 255.76 C 725.37 256.53 729.77 256.91 733.96 258.23 C 740.49 260.37 747.32 261.62 753.66 264.35 C 762.54 268.07 771.72 271.15 780.16 275.84 C 785.98 278.94 792.03 281.65 797.42 285.52 C 807.12 291.62 816.18 298.67 825.04 305.91 C 831.30 310.96 836.50 317.13 842.24 322.72 C 850.93 332.19 858.85 342.40 865.71 353.28 C 869.11 358.12 871.92 363.31 874.52 368.61 C 878.22 375.34 881.76 382.17 884.46 389.37 C 886.96 396.05 889.90 402.60 891.50 409.58 C 892.59 414.42 894.56 419.03 895.35 423.95 C 895.94 427.68 896.95 431.32 897.48 435.06 C 898.16 440.37 900.04 445.52 899.78 450.94 C 899.54 460.63 900.07 470.31 900.00 480.00 C 899.87 487.93 901.18 495.99 898.99 503.76 C 898.03 512.74 896.68 521.69 894.21 530.39 C 892.39 538.73 889.70 546.84 886.59 554.77 C 884.32 560.41 882.49 566.25 879.62 571.63 C 878.09 574.53 876.60 577.45 875.25 580.44 C 872.35 586.86 868.15 592.55 864.68 598.66 C 862.07 603.23 858.71 607.31 855.50 611.46 C 851.98 615.96 849.18 621.05 844.95 624.96 C 839.20 630.52 834.49 637.09 828.32 642.23 C 814.89 654.42 800.19 665.25 784.42 674.23 C 773.45 679.48 762.68 685.29 751.14 689.22 C 745.33 691.20 739.65 693.63 733.60 694.75 C 726.38 696.16 719.34 698.45 712.01 699.32 C 707.99 699.85 704.15 701.52 700.05 701.41 C 681.71 701.18 663.37 700.53 645.02 700.23 C 640.79 700.10 636.47 700.17 632.40 698.85 C 627.80 697.32 622.90 697.12 618.24 695.86 C 610.10 693.73 601.80 692.06 593.92 689.04 C 588.28 686.92 582.45 685.30 576.93 682.87 C 570.61 679.88 564.16 677.20 557.99 673.92 C 553.42 671.62 549.12 668.84 544.67 666.33 C 535.98 661.62 528.27 655.39 520.24 649.69 C 516.16 646.85 512.58 643.39 508.65 640.36 C 501.26 634.79 495.13 627.79 488.14 621.77 C 483.27 617.62 479.58 612.37 475.15 607.80 C 469.84 602.26 464.87 596.07 462.49 588.67 C 460.34 581.73 458.65 574.34 460.04 567.08 C 461.32 560.38 462.99 553.53 466.93 547.84 C 473.25 539.03 482.32 531.72 493.09 529.37 C 498.99 528.25 505.05 528.41 511.03 528.61 C 517.03 528.81 522.54 531.52 527.67 534.43 C 532.02 536.86 535.63 540.38 539.07 543.95 C 547.90 553.47 556.83 563.03 567.26 570.84 C 576.68 578.99 587.33 585.54 598.16 591.63 C 602.77 593.83 607.59 595.56 612.19 597.79 C 623.88 602.43 636.27 605.08 648.64 607.17 C 654.42 607.90 660.27 607.53 666.06 608.26 C 670.71 608.89 675.38 608.10 680.03 607.89 C 688.18 607.85 696.09 605.68 703.98 603.92 C 711.80 601.42 719.63 598.74 726.85 594.77 C 737.02 589.42 746.89 583.18 755.03 574.99 C 760.76 569.69 766.42 564.21 770.70 557.63 C 776.92 549.84 782.37 541.35 786.11 532.08 C 791.99 520.00 795.04 506.79 797.37 493.63 C 798.09 488.43 797.44 483.16 798.11 477.96 C 798.89 473.30 797.51 468.70 797.50 464.05 C 797.58 457.08 795.40 450.39 794.25 443.57 C 787.94 419.05 774.54 396.28 755.78 379.23 C 735.16 360.33 707.92 348.62 679.95 347.30 C 673.37 347.56 666.72 346.54 660.22 347.94 C 654.56 349.00 648.69 348.58 643.11 350.11 C 632.27 352.83 621.22 355.21 611.09 360.06 C 585.55 370.79 563.64 388.75 545.35 409.31 C 541.03 414.00 536.62 418.65 532.89 423.84 C 525.28 434.24 517.13 444.26 510.04 455.04 C 502.74 466.34 494.72 477.18 487.98 488.84 C 478.00 504.86 467.87 520.78 457.74 536.71 C 454.90 541.73 451.41 546.34 448.27 551.17 C 441.05 562.55 433.00 573.36 425.37 584.47 C 422.35 588.99 418.55 592.91 415.23 597.20 C 409.09 605.02 402.55 612.50 396.00 619.96 C 391.92 624.23 387.48 628.13 383.42 632.43 C 379.71 636.42 375.29 639.64 371.31 643.34 C 365.68 648.46 359.29 652.64 353.26 657.25 C 349.02 660.51 344.17 662.81 339.73 665.75 C 326.41 674.13 311.66 679.84 296.70 684.49 C 285.90 687.21 275.09 690.06 264.02 691.41 C 249.34 691.62 234.65 690.96 219.97 690.69 C 215.99 690.57 211.92 690.77 208.06 689.64 C 199.15 686.99 190.09 684.77 181.36 681.58 C 174.92 678.84 168.34 676.34 162.35 672.68 C 156.70 669.33 150.61 666.67 145.40 662.62 C 140.49 658.86 135.23 655.53 130.73 651.26 C 123.43 644.93 116.47 638.18 110.02 630.98 C 105.00 624.64 99.66 618.52 95.30 611.69 C 90.13 604.59 86.24 596.70 81.89 589.10 C 80.67 586.93 79.59 584.68 78.66 582.38 C 76.07 575.69 72.68 569.33 70.63 562.44 C 64.98 546.80 61.86 530.38 59.63 513.94 C 59.29 502.96 59.17 491.96 58.67 480.98 C 58.30 475.41 59.31 469.90 59.81 464.39 C 60.81 456.88 61.40 449.31 63.19 441.94 C 65.65 431.78 68.17 421.62 71.88 411.83 C 76.54 397.28 84.20 383.95 91.97 370.87 C 95.59 365.54 99.25 360.23 103.07 355.05 C 110.58 345.95 118.39 337.06 127.39 329.39 C 133.23 324.53 138.93 319.42 145.48 315.52 C 151.75 311.81 157.55 307.29 164.24 304.32 C 174.09 299.18 184.59 295.41 195.20 292.20 C 198.71 290.82 202.37 289.81 206.15 289.62 C 221.91 288.56 237.63 286.97 253.40 286.13 C 257.64 286.00 261.73 287.35 265.93 287.71 C 288.41 290.52 310.44 297.10 330.57 307.52 C 343.55 314.44 356.19 322.14 367.48 331.61 C 374.79 337.21 381.51 343.52 388.39 349.62 C 393.63 354.39 398.09 359.92 403.16 364.86 C 413.97 375.67 419.57 392.20 415.51 407.19 C 412.80 421.56 402.38 434.13 388.96 439.81 C 384.26 441.93 379.02 441.96 373.97 442.25 C 370.33 442.37 366.65 442.51 363.07 441.81 C 356.48 440.39 350.47 436.93 345.48 432.47 C 337.18 424.79 330.22 415.75 321.56 408.44 C 317.59 405.04 313.64 401.59 309.41 398.52 C 300.44 392.15 291.17 385.93 280.76 382.18 C 271.38 377.92 261.18 375.94 251.05 374.39 C 244.72 373.28 238.30 374.05 231.92 373.80 C 209.23 374.30 187.48 384.62 171.23 400.22 C 160.81 410.52 152.42 422.83 146.29 436.13 C 142.78 443.24 140.88 450.97 138.85 458.59 C 136.73 467.58 135.11 476.79 135.54 486.06 C 135.28 492.85 135.89 499.63 136.33 506.40 C 138.11 520.14 141.95 533.65 148.01 546.12 C 151.56 552.44 154.75 559.01 159.18 564.78 C 173.93 584.60 195.38 600.38 220.04 604.76 C 227.34 605.73 234.75 606.55 242.10 605.66 C 257.83 605.42 273.34 601.18 287.47 594.36 C 294.01 591.73 299.54 587.31 305.42 583.54 C 311.70 579.19 317.32 573.99 323.09 569.00 C 330.51 561.75 337.47 554.04 344.10 546.07 C 348.79 540.06 353.10 533.76 357.76 527.73 C 366.64 515.76 374.29 502.94 382.58 490.57 C 391.99 475.30 401.49 460.08 410.59 444.62 C 419.51 430.60 428.22 416.45 437.71 402.81 C 447.47 387.49 458.42 372.97 469.85 358.87 C 476.91 351.20 483.08 342.74 490.69 335.58 C 495.09 330.67 500.15 326.47 504.97 321.99 C 510.51 316.15 517.00 311.34 523.19 306.22 C 528.78 301.70 534.82 297.80 540.72 293.71 C 547.29 289.07 554.49 285.48 561.41 281.43 C 567.65 277.72 574.60 275.46 581.10 272.28 C 587.86 268.93 595.18 266.99 602.29 264.55 C 607.12 262.86 612.03 261.34 617.06 260.30 C 621.55 259.49 625.49 256.78 630.12 256.53 C 645.91 255.26 661.71 254.02 677.50 252.77 M 682.38 285.15 C 675.73 285.95 669.01 285.31 662.38 286.02 C 655.99 287.36 649.46 287.52 643.01 288.29 C 626.99 291.52 610.98 295.45 596.03 302.16 C 591.71 304.14 587.23 305.75 582.92 307.74 C 564.34 317.43 546.57 328.89 531.05 343.04 C 526.85 346.84 522.86 350.86 518.63 354.62 C 508.14 364.86 498.62 376.04 489.57 387.56 C 475.81 404.19 464.49 422.60 452.45 440.46 C 431.60 473.30 412.54 507.27 390.26 539.19 C 377.28 557.01 364.60 575.28 348.56 590.55 C 342.49 596.16 336.49 601.88 329.80 606.76 C 322.34 612.18 314.84 617.65 306.44 621.52 C 290.53 630.33 272.71 635.12 254.79 637.69 C 248.59 638.93 242.25 638.52 235.97 638.57 C 230.67 638.54 225.34 638.68 220.10 637.81 C 205.16 635.45 190.38 631.16 177.06 623.88 C 167.57 618.36 158.81 611.69 150.55 604.49 C 132.65 587.53 119.15 566.02 111.45 542.61 C 108.09 531.34 105.06 519.89 103.88 508.16 C 103.41 499.46 103.46 490.73 103.11 482.02 C 102.69 475.22 104.17 468.52 105.05 461.81 C 108.42 441.75 115.33 422.22 125.86 404.78 C 131.40 396.49 137.16 388.28 143.95 380.95 C 155.62 369.27 168.83 358.79 183.99 352.04 C 193.57 347.49 203.89 344.75 214.25 342.65 C 222.80 341.54 231.46 341.31 240.07 340.84 C 257.35 341.36 274.57 344.52 290.82 350.46 C 295.18 352.50 299.70 354.20 304.09 356.18 C 312.87 361.18 321.55 366.39 329.72 372.35 C 339.32 379.98 348.78 387.84 357.25 396.73 C 360.71 400.28 363.59 404.42 367.45 407.57 C 369.45 409.16 372.07 410.49 374.68 409.77 C 379.99 408.47 383.16 403.05 383.86 397.94 C 383.95 393.81 381.38 390.15 378.69 387.24 C 373.73 382.22 369.09 376.87 363.81 372.17 C 356.21 364.72 347.63 358.40 339.37 351.72 C 326.01 342.46 311.78 334.29 296.53 328.57 C 282.81 323.84 268.57 320.13 254.00 319.63 C 249.90 319.37 245.79 318.91 241.67 319.29 C 234.85 319.87 227.95 319.27 221.18 320.54 C 206.41 322.00 192.18 327.00 179.07 333.83 C 167.32 339.53 156.41 346.98 146.99 356.03 C 135.09 367.00 124.47 379.50 116.53 393.66 C 111.96 401.02 108.12 408.82 104.73 416.78 C 101.64 425.47 98.24 434.08 96.18 443.09 C 93.49 454.55 91.81 466.23 91.04 477.97 C 90.88 489.00 91.35 500.03 91.91 511.05 C 94.74 533.60 101.18 555.84 112.00 575.87 C 126.29 604.31 149.34 628.25 177.15 643.71 C 189.18 649.55 201.62 654.92 214.87 657.30 C 221.80 658.84 228.95 658.58 235.98 659.36 C 242.30 659.35 248.63 659.34 254.95 659.10 C 268.11 657.59 281.40 655.71 293.79 650.81 C 308.47 646.01 321.96 638.28 334.77 629.77 C 356.65 614.35 375.26 594.74 391.65 573.68 C 402.65 560.35 411.88 545.70 421.43 531.33 C 428.29 522.33 433.40 512.19 439.85 502.93 C 456.05 476.63 472.48 450.45 490.22 425.14 C 494.73 419.03 499.49 413.10 503.93 406.93 C 517.87 388.46 533.90 371.48 552.01 357.06 C 555.07 354.39 558.22 351.80 561.69 349.67 C 566.58 346.59 571.13 342.97 576.27 340.29 C 585.99 335.21 595.59 329.74 606.03 326.24 C 618.83 321.89 631.98 318.59 645.26 316.11 C 651.50 315.27 657.81 315.11 664.09 314.64 C 671.28 314.39 678.52 313.31 685.69 314.38 C 689.95 314.89 694.26 314.93 698.47 315.88 C 705.48 317.42 712.63 318.43 719.44 320.77 C 729.88 323.98 740.32 327.65 749.59 333.53 C 767.45 343.44 783.57 356.70 796.09 372.89 C 803.14 381.16 808.79 390.48 813.97 399.99 C 818.21 408.13 821.37 416.78 824.19 425.50 C 825.87 431.27 827.90 436.98 828.80 442.95 C 829.49 447.61 830.82 452.20 830.78 456.95 C 830.77 462.97 830.74 468.99 831.05 475.01 C 831.27 483.70 831.94 492.50 830.13 501.07 C 827.78 518.13 822.53 534.71 815.32 550.31 C 810.90 558.12 806.89 566.24 801.36 573.36 C 792.28 586.66 780.95 598.40 768.12 608.12 C 759.75 615.12 750.06 620.29 740.57 625.58 C 725.26 632.97 708.72 637.64 691.91 640.04 C 683.72 641.66 675.32 641.33 667.03 641.12 C 660.87 640.87 654.65 641.40 648.56 640.26 C 645.73 639.72 642.88 639.30 640.02 639.05 C 634.00 638.56 628.20 636.75 622.32 635.49 C 603.80 631.48 586.37 623.53 570.14 613.89 C 554.72 604.45 540.82 592.76 527.63 580.45 C 522.39 575.62 518.16 569.84 513.03 564.91 C 510.66 562.55 507.54 560.80 504.14 560.70 C 499.14 561.16 494.72 564.84 493.48 569.74 C 491.42 574.35 494.44 579.13 497.23 582.68 C 508.63 595.94 521.53 607.83 534.86 619.12 C 543.91 625.82 552.74 632.91 562.66 638.32 C 578.57 647.96 595.77 655.35 613.58 660.68 C 622.85 663.17 632.16 665.59 641.73 666.60 C 650.23 668.69 659.04 667.67 667.67 668.76 C 673.10 669.39 678.54 668.58 683.99 668.72 C 688.80 668.83 693.65 668.73 698.39 667.76 C 709.18 666.40 719.99 664.56 730.30 661.03 C 737.52 658.57 744.85 656.33 751.68 652.89 C 761.98 648.23 772.09 642.99 781.32 636.40 C 786.96 632.40 793.01 628.85 797.87 623.87 C 804.67 617.68 811.63 611.63 817.57 604.57 C 822.93 599.15 827.06 592.72 831.69 586.69 C 838.97 576.56 844.88 565.52 850.10 554.20 C 855.91 540.99 860.69 527.28 863.27 513.05 C 864.48 507.72 864.57 502.20 865.88 496.89 C 867.48 490.36 866.37 483.61 866.67 476.98 C 867.08 470.31 865.92 463.67 866.27 457.00 C 866.58 450.96 864.54 445.20 863.81 439.27 C 863.08 434.40 861.85 429.62 860.35 424.94 C 858.66 419.73 857.68 414.31 855.51 409.26 C 853.66 404.87 852.18 400.33 850.12 396.03 C 845.92 387.40 841.79 378.67 836.26 370.78 C 825.27 353.30 810.99 337.99 794.89 325.11 C 789.52 320.30 783.19 316.78 777.23 312.78 C 774.33 310.85 771.21 309.28 768.12 307.70 C 763.57 305.35 759.19 302.65 754.50 300.60 C 743.30 295.93 731.84 291.76 719.94 289.30 C 707.56 286.98 694.99 285.05 682.38 285.15 Z" />
</g>
</svg>
